<svg xmlns="http://www.w3.org/2000/svg" viewBox="0 0 338.93 28.15"><g id="Calque_2" data-name="Calque 2"><g id="Calque_3" data-name="Calque 3"><path d="M0,27.82V1.08H3V27.82Z"/><path d="M35,28.15a7.29,7.29,0,0,1-2.58-.45,5.88,5.88,0,0,1-2-1.21,5.58,5.58,0,0,1-1.3-1.89,6.39,6.39,0,0,1-.47-2.47,5.52,5.52,0,0,1,.77-3,5.11,5.11,0,0,1,2.33-2,8.68,8.68,0,0,1,3.73-.73h5.23v-2a3.56,3.56,0,0,0-1.13-2.89,5,5,0,0,0-3.21-.94c-2.26,0-3.63.78-4.14,2.34H29.42a4.75,4.75,0,0,1,2.11-3.71,8.82,8.82,0,0,1,5-1.26,8.15,8.15,0,0,1,5.16,1.56,5.82,5.82,0,0,1,2,4.87V27.82H40.83V25.19h-.1A6.24,6.24,0,0,1,35,28.15Zm.74-2.53a5.08,5.08,0,0,0,3.52-1.28,4.1,4.1,0,0,0,1.43-3.2V18.87H35.57a4.14,4.14,0,0,0-2.94.89,3.05,3.05,0,0,0-.94,2.34,3.06,3.06,0,0,0,1.2,2.61A4.6,4.6,0,0,0,35.78,25.62Z"/><path d="M98,19.76V16.34a8.53,8.53,0,0,1,2.15-6.09,8.82,8.82,0,0,1,11.17-.53,5.56,5.56,0,0,1,2,4H110.4a4.27,4.27,0,0,0-.33-1,5.31,5.31,0,0,0-.69-1,3.33,3.33,0,0,0-1.34-.85,5.89,5.89,0,0,0-2-.31,4.67,4.67,0,0,0-3.81,1.58,6.46,6.46,0,0,0-1.32,4.28v3.35a6.78,6.78,0,0,0,.61,3,4.3,4.3,0,0,0,1.77,1.95,5.42,5.42,0,0,0,2.75.68c2.54,0,4-.92,4.51-2.74h2.92a5.32,5.32,0,0,1-2,3.85A8.15,8.15,0,0,1,106,28.15a7.64,7.64,0,0,1-5.85-2.28A8.58,8.58,0,0,1,98,19.76Z"/><path d="M154.36,8.29V27.82h-2.9V24.59h-.19a5.21,5.21,0,0,1-2,2.49,6.39,6.39,0,0,1-3.82,1.07,7.46,7.46,0,0,1-4.93-1.5A5.72,5.72,0,0,1,138.74,22V8.29h3V21.21q0,4.41,4.44,4.41a5.35,5.35,0,0,0,3.79-1.43,4.47,4.47,0,0,0,1.53-3.37V8.29Z"/><path d="M180.89,2.21a2.16,2.16,0,0,1,.64-1.59,2.31,2.31,0,0,1,3.15,0,2.19,2.19,0,0,1,.62,1.59A2.24,2.24,0,0,1,185,3.35a1.93,1.93,0,0,1-.79.76,2.42,2.42,0,0,1-1.13.27,2.19,2.19,0,0,1-1.57-.62A2.09,2.09,0,0,1,180.89,2.21Zm.75,25.61V8.29h2.93V27.82Z"/><path d="M210.89,13.84a5.07,5.07,0,0,1,2-4.37A8.39,8.39,0,0,1,218,8a9.24,9.24,0,0,1,2.8.41A6.63,6.63,0,0,1,223,9.51a4.77,4.77,0,0,1,1.37,1.7,4.93,4.93,0,0,1,.48,2.17h-2.73a3,3,0,0,0-.52-1.41,3.39,3.39,0,0,0-1.42-1.12,5.26,5.26,0,0,0-2.29-.46,5.83,5.83,0,0,0-2.13.36,3.23,3.23,0,0,0-1.46,1.08,2.77,2.77,0,0,0-.54,1.69A2.34,2.34,0,0,0,214,14.7a2.5,2.5,0,0,0,.64.77,3.89,3.89,0,0,0,1,.54,8,8,0,0,0,1.14.35l1.3.25.13,0,.12,0a.2.2,0,0,1,.14.05c.68.11,1.28.23,1.78.35s1,.27,1.59.46a5.7,5.7,0,0,1,1.4.67,7.75,7.75,0,0,1,1.07.94,3.4,3.4,0,0,1,.73,1.3,5.51,5.51,0,0,1,.23,1.68,5.28,5.28,0,0,1-2.1,4.44,8.9,8.9,0,0,1-5.55,1.61,8.69,8.69,0,0,1-5.17-1.41,4.6,4.6,0,0,1-2-4h2.87q.43,2.93,4.41,2.93a6.8,6.8,0,0,0,2.64-.45A3.17,3.17,0,0,0,222,24.11a2.92,2.92,0,0,0,.46-1.65,2.35,2.35,0,0,0-.26-1.15,2.55,2.55,0,0,0-.64-.79,4.23,4.23,0,0,0-1.12-.58,10.45,10.45,0,0,0-1.3-.39l-1.58-.34c-.9-.18-1.61-.34-2.14-.47a12.26,12.26,0,0,1-1.77-.62,5,5,0,0,1-1.52-.95,4.49,4.49,0,0,1-.87-1.35A5.15,5.15,0,0,1,210.89,13.84Z"/><path d="M250.68,2.21a2.16,2.16,0,0,1,.64-1.59,2.31,2.31,0,0,1,3.15,0,2.19,2.19,0,0,1,.62,1.59,2.24,2.24,0,0,1-.28,1.14,1.93,1.93,0,0,1-.79.76,2.42,2.42,0,0,1-1.13.27,2.19,2.19,0,0,1-1.57-.62A2.09,2.09,0,0,1,250.68,2.21Zm.75,25.61V8.29h2.93V27.82Z"/><path d="M281.64,27.82V8.29h2.9v3.6h.19c.83-2.6,2.81-3.91,5.93-3.91a6.91,6.91,0,0,1,4.86,1.65,6.12,6.12,0,0,1,1.81,4.78V27.82H294.4V15.33a5,5,0,0,0-1.15-3.57A4.24,4.24,0,0,0,290,10.53a4.83,4.83,0,0,0-4.06,1.78,7.19,7.19,0,0,0-1.4,4.56v11Z"/><path d="M331.21,28.15a7.84,7.84,0,0,1-6-2.3A8.66,8.66,0,0,1,323,19.64V16.47a8.57,8.57,0,0,1,2.22-6.17,8.22,8.22,0,0,1,11.45,0,8.57,8.57,0,0,1,2.22,6.17v2.4H326v1a6,6,0,0,0,1.37,4.08,4.81,4.81,0,0,0,3.86,1.61,5.51,5.51,0,0,0,2.86-.69,3.17,3.17,0,0,0,1.48-1.67h3.09a4.43,4.43,0,0,1-.65,1.64,7.15,7.15,0,0,1-1.38,1.59,6.82,6.82,0,0,1-2.29,1.25A9.62,9.62,0,0,1,331.21,28.15ZM326,16.61h10v-.34a6.83,6.83,0,0,0-.62-3,4.62,4.62,0,0,0-1.76-2,5,5,0,0,0-2.62-.69,4.61,4.61,0,0,0-3.62,1.54A6,6,0,0,0,326,16.27Z"/></g></g></svg>