<svg xmlns="http://www.w3.org/2000/svg" viewBox="0 0 231 18.29"><defs><style>.cls-1{fill:#1d1d1b;}</style></defs><g id="Calque_2" data-name="Calque 2"><g id="Calque_1-2" data-name="Calque 1"><path class="cls-1" d="M1.58.71V13.54H0V.71Z"/><path class="cls-1" d="M13,4.44a3.72,3.72,0,0,1,1.38,1.49V4H16v9.52H14.37V11.6A3.71,3.71,0,0,1,13,13.11a3.81,3.81,0,0,1-2.12.58,4.37,4.37,0,0,1-2.32-.63,4.5,4.5,0,0,1-1.63-1.77,5.5,5.5,0,0,1-.59-2.57,5.32,5.32,0,0,1,.59-2.54A4.47,4.47,0,0,1,8.55,4.47a4.53,4.53,0,0,1,2.32-.6A3.89,3.89,0,0,1,13,4.44ZM9.56,5.65A3.12,3.12,0,0,0,8.38,6.86a3.76,3.76,0,0,0-.44,1.86,4,4,0,0,0,.44,1.9,3.29,3.29,0,0,0,1.18,1.27,3,3,0,0,0,1.59.45,3.1,3.1,0,0,0,1.6-.43,3.21,3.21,0,0,0,1.18-1.24,3.92,3.92,0,0,0,.44-1.88,3.9,3.9,0,0,0-.44-1.88,3.21,3.21,0,0,0-1.18-1.24,3.1,3.1,0,0,0-1.6-.43A3.14,3.14,0,0,0,9.56,5.65Z"/><path class="cls-1" d="M36.1,4.66a4.23,4.23,0,0,1,1.51,2.27H35.92a2.58,2.58,0,0,0-1-1.3,2.85,2.85,0,0,0-1.66-.46,2.75,2.75,0,0,0-2.18.94,3.94,3.94,0,0,0-.82,2.68,3.92,3.92,0,0,0,.82,2.66,2.75,2.75,0,0,0,2.18.94A2.87,2.87,0,0,0,35,11.94a2.55,2.55,0,0,0,1-1.31h1.69a4.33,4.33,0,0,1-1.53,2.23,4.44,4.44,0,0,1-2.78.83,4.74,4.74,0,0,1-2.39-.6,4.19,4.19,0,0,1-1.63-1.73,5.33,5.33,0,0,1-.59-2.57,5.38,5.38,0,0,1,.59-2.59,4.19,4.19,0,0,1,1.63-1.73,4.69,4.69,0,0,1,2.39-.6A4.64,4.64,0,0,1,36.1,4.66Z"/><path class="cls-1" d="M50.77,4v9.52H49.19V12a3,3,0,0,1-1.28,1.26,3.9,3.9,0,0,1-1.82.42,3.77,3.77,0,0,1-1.86-.46,3.26,3.26,0,0,1-1.34-1.36,4.5,4.5,0,0,1-.49-2.2V4H44V9.41a3.09,3.09,0,0,0,.7,2.18,2.82,2.82,0,0,0,3.83,0,3.09,3.09,0,0,0,.7-2.18V4Z"/><path class="cls-1" d="M56.19.66a1.07,1.07,0,0,1,1.51,0,1,1,0,0,1,.31.76,1,1,0,0,1-.31.77,1.07,1.07,0,0,1-.76.31,1,1,0,0,1-.75-.31,1,1,0,0,1-.31-.77A1.07,1.07,0,0,1,56.19.66ZM57.72,4v9.52H56.14V4Z"/><path class="cls-1" d="M68.81,4.67a3.11,3.11,0,0,1,1,2.21H68.17a1.78,1.78,0,0,0-.54-1.28,1.9,1.9,0,0,0-1.38-.49,2.16,2.16,0,0,0-1.41.43,1.31,1.31,0,0,0-.52,1.06,1.17,1.17,0,0,0,.32.86,2,2,0,0,0,.8.48q.48.15,1.29.33a13.56,13.56,0,0,1,1.68.48,2.43,2.43,0,0,1,1.08.78A2.24,2.24,0,0,1,69.94,11a2.29,2.29,0,0,1-.45,1.39,2.92,2.92,0,0,1-1.27,1,4.92,4.92,0,0,1-1.87.33,3.87,3.87,0,0,1-2.55-.79,2.91,2.91,0,0,1-1-2.2h1.63A1.73,1.73,0,0,0,64.94,12a2,2,0,0,0,1.41.48,2.48,2.48,0,0,0,1.5-.4A1.28,1.28,0,0,0,68.38,11a1.19,1.19,0,0,0-.32-.86,2,2,0,0,0-.81-.48c-.32-.11-.77-.23-1.33-.36a12.38,12.38,0,0,1-1.66-.46,2.56,2.56,0,0,1-1.07-.73,2,2,0,0,1-.44-1.39,2.44,2.44,0,0,1,.44-1.43,3,3,0,0,1,1.26-1,4.45,4.45,0,0,1,1.92-.38A3.55,3.55,0,0,1,68.81,4.67Z"/><path class="cls-1" d="M75,.66a1,1,0,0,1,.74-.31,1,1,0,0,1,.76.31,1,1,0,0,1,.32.76,1.06,1.06,0,0,1-.32.77,1,1,0,0,1-.76.31A1,1,0,0,1,75,2.19a1.09,1.09,0,0,1-.31-.77A1,1,0,0,1,75,.66ZM76.56,4v9.52H75V4Z"/><path class="cls-1" d="M88.48,4.32a3.38,3.38,0,0,1,1.33,1.37,4.6,4.6,0,0,1,.5,2.21v5.64H88.75V8.16A3.07,3.07,0,0,0,88.05,6a2.47,2.47,0,0,0-1.92-.74A2.5,2.5,0,0,0,84.21,6a3.12,3.12,0,0,0-.7,2.18v5.38H81.93V4h1.58V5.56A3.17,3.17,0,0,1,84.79,4.3a3.82,3.82,0,0,1,1.82-.43A3.89,3.89,0,0,1,88.48,4.32Z"/><path class="cls-1" d="M104.16,9.33H96.58a3.29,3.29,0,0,0,.89,2.24,2.85,2.85,0,0,0,2.11.82,3,3,0,0,0,1.64-.43,2.64,2.64,0,0,0,1-1.14h1.7a4.39,4.39,0,0,1-1.56,2.06,4.52,4.52,0,0,1-2.76.81,4.7,4.7,0,0,1-2.38-.6,4.21,4.21,0,0,1-1.64-1.73A5.44,5.44,0,0,1,95,8.79a5.5,5.5,0,0,1,.59-2.59,4.2,4.2,0,0,1,1.66-1.73,5,5,0,0,1,2.48-.6,4.67,4.67,0,0,1,2.36.58,4.26,4.26,0,0,1,1.59,1.62,4.67,4.67,0,0,1,.57,2.32A6.86,6.86,0,0,1,104.16,9.33Zm-1.58-1.15a3.09,3.09,0,0,0-.4-1.6,2.72,2.72,0,0,0-1.08-1,3.25,3.25,0,0,0-1.52-.36,2.86,2.86,0,0,0-2.06.8,3.23,3.23,0,0,0-.92,2.21Z"/><path class="cls-1" d="M122.53,4.23a3.43,3.43,0,0,1,1.28,1.2V3.94h2.43v9.67a5.31,5.31,0,0,1-.53,2.39,3.9,3.9,0,0,1-1.6,1.67,5.16,5.16,0,0,1-2.62.62,5.7,5.7,0,0,1-3.36-.91,3.46,3.46,0,0,1-1.46-2.59h2.39a1.89,1.89,0,0,0,.87,1,3.05,3.05,0,0,0,1.56.37,2.26,2.26,0,0,0,1.67-.64,2.61,2.61,0,0,0,.65-1.92V11.93a3.68,3.68,0,0,1-1.29,1.28,3.51,3.51,0,0,1-1.81.47,4.2,4.2,0,0,1-2.25-.63,4.6,4.6,0,0,1-1.61-1.77,5.35,5.35,0,0,1-.6-2.56,5.35,5.35,0,0,1,.6-2.56,4.59,4.59,0,0,1,1.61-1.74,4.19,4.19,0,0,1,2.25-.62A3.74,3.74,0,0,1,122.53,4.23Zm-2.49,2a2.48,2.48,0,0,0-.94,1,3,3,0,0,0-.37,1.52,3,3,0,0,0,.37,1.53,2.41,2.41,0,0,0,.94,1,2.46,2.46,0,0,0,2.46,0,2.53,2.53,0,0,0,1-1,3.05,3.05,0,0,0,.36-1.52,3.09,3.09,0,0,0-.36-1.53,2.53,2.53,0,0,0-1-1,2.46,2.46,0,0,0-2.46,0Z"/><path class="cls-1" d="M135.23,4.28a2.84,2.84,0,0,1,1.63-.48V6.29h-.6a2.24,2.24,0,0,0-1.65.55,2.58,2.58,0,0,0-.55,1.88v4.82h-2.45V3.94h2.45V5.63A3.68,3.68,0,0,1,135.23,4.28Z"/><path class="cls-1" d="M147,4.23a3.43,3.43,0,0,1,1.28,1.2V3.94h2.43v9.6h-2.43V11.93A3.68,3.68,0,0,1,147,13.21a3.51,3.51,0,0,1-1.81.47,4.2,4.2,0,0,1-2.25-.63,4.6,4.6,0,0,1-1.61-1.77,5.35,5.35,0,0,1-.6-2.56,5.35,5.35,0,0,1,.6-2.56,4.59,4.59,0,0,1,1.61-1.74,4.19,4.19,0,0,1,2.25-.62A3.74,3.74,0,0,1,147,4.23Zm-2.49,2a2.48,2.48,0,0,0-.94,1,3,3,0,0,0-.37,1.52,3,3,0,0,0,.37,1.53,2.41,2.41,0,0,0,.94,1,2.46,2.46,0,0,0,2.46,0,2.53,2.53,0,0,0,.95-1,3.05,3.05,0,0,0,.36-1.52,3.09,3.09,0,0,0-.36-1.53,2.53,2.53,0,0,0-.95-1,2.46,2.46,0,0,0-2.46,0Z"/><path class="cls-1" d="M163.83,4.42a4.46,4.46,0,0,1,1.62,1.74A5.46,5.46,0,0,1,166,8.72a5.5,5.5,0,0,1-.59,2.57,4.32,4.32,0,0,1-1.62,1.76,4.2,4.2,0,0,1-2.25.63,3.44,3.44,0,0,1-1.81-.47,3.79,3.79,0,0,1-1.27-1.28v6.18h-2.45V3.94h2.45V5.43a3.35,3.35,0,0,1,1.25-1.2,3.75,3.75,0,0,1,1.83-.43A4.19,4.19,0,0,1,163.83,4.42Zm-4,1.82a2.44,2.44,0,0,0-.94,1,3.09,3.09,0,0,0-.35,1.53,3,3,0,0,0,.35,1.52,2.46,2.46,0,0,0,2.18,1.3,2.48,2.48,0,0,0,1.24-.33,2.45,2.45,0,0,0,.93-1,3.09,3.09,0,0,0,.36-1.53,3.09,3.09,0,0,0-.36-1.53,2.53,2.53,0,0,0-.93-1A2.57,2.57,0,0,0,161,5.91,2.45,2.45,0,0,0,159.79,6.24Z"/><path class="cls-1" d="M178.07,4.27a3.36,3.36,0,0,1,1.33,1.41,4.74,4.74,0,0,1,.49,2.21v5.65h-2.43V8.24a2.41,2.41,0,0,0-.57-1.73,2,2,0,0,0-1.56-.6,2.09,2.09,0,0,0-1.57.6,2.37,2.37,0,0,0-.58,1.73v5.3h-2.45V.71h2.45V5.37A3.19,3.19,0,0,1,174.4,4.2a3.71,3.71,0,0,1,1.76-.4A3.86,3.86,0,0,1,178.07,4.27Z"/><path class="cls-1" d="M185.35.43a1.43,1.43,0,0,1,1-.43,1.47,1.47,0,0,1,1.05.43,1.44,1.44,0,0,1,.44,1.06,1.44,1.44,0,0,1-.44,1.06,1.43,1.43,0,0,1-1.05.43,1.39,1.39,0,0,1-1-.43,1.44,1.44,0,0,1-.44-1.06A1.44,1.44,0,0,1,185.35.43Zm2.27,3.51v9.6h-2.45V3.94Z"/><path class="cls-1" d="M198.59,4.23a3.43,3.43,0,0,1,1.28,1.2V3.94h2.43V18.11h-2.43V11.93a3.85,3.85,0,0,1-1.29,1.28,3.51,3.51,0,0,1-1.81.47,4.2,4.2,0,0,1-2.25-.63,4.6,4.6,0,0,1-1.61-1.77,5.35,5.35,0,0,1-.6-2.56,5.35,5.35,0,0,1,.6-2.56,4.59,4.59,0,0,1,1.61-1.74,4.19,4.19,0,0,1,2.25-.62A3.74,3.74,0,0,1,198.59,4.23Zm-2.49,2a2.48,2.48,0,0,0-.94,1,3,3,0,0,0-.37,1.52,3,3,0,0,0,.37,1.53,2.41,2.41,0,0,0,.94,1,2.43,2.43,0,0,0,1.22.33,2.48,2.48,0,0,0,1.24-.33,2.53,2.53,0,0,0,.95-1,3.05,3.05,0,0,0,.36-1.52,3.09,3.09,0,0,0-.36-1.53,2.53,2.53,0,0,0-.95-1,2.48,2.48,0,0,0-1.24-.33A2.43,2.43,0,0,0,196.1,6.24Z"/><path class="cls-1" d="M216.74,3.94v9.6h-2.45V12.08a3,3,0,0,1-1.22,1.17,3.8,3.8,0,0,1-1.78.41,3.74,3.74,0,0,1-1.89-.48,3.28,3.28,0,0,1-1.33-1.4,4.77,4.77,0,0,1-.49-2.21V3.94H210V9.22a2.42,2.42,0,0,0,.57,1.73,2,2,0,0,0,1.56.61,2.06,2.06,0,0,0,1.57-.61,2.38,2.38,0,0,0,.58-1.73V3.94Z"/><path class="cls-1" d="M230.93,9.53h-7a2.3,2.3,0,0,0,.69,1.51,2.17,2.17,0,0,0,1.54.57,2.2,2.2,0,0,0,1.17-.27,2.3,2.3,0,0,0,.71-.77h2.63a4.2,4.2,0,0,1-1.61,2.24,5.2,5.2,0,0,1-5.34.25A4.3,4.3,0,0,1,222,11.33a5.35,5.35,0,0,1-.61-2.61,5.29,5.29,0,0,1,.61-2.6,4.3,4.3,0,0,1,1.69-1.72,5.42,5.42,0,0,1,4.94,0,4.36,4.36,0,0,1,1.71,1.67A5.06,5.06,0,0,1,231,8.6,5.41,5.41,0,0,1,230.93,9.53ZM228.47,8a2.12,2.12,0,0,0-.7-1.53,2.37,2.37,0,0,0-1.61-.57,2.14,2.14,0,0,0-1.5.57A2.41,2.41,0,0,0,223.93,8Z"/></g></g></svg>